<?xml version="1.0" standalone="no"?>
<!DOCTYPE svg PUBLIC "-//W3C//DTD SVG 20010904//EN"
 "http://www.w3.org/TR/2001/REC-SVG-20010904/DTD/svg10.dtd">
<svg version="1.0" xmlns="http://www.w3.org/2000/svg"
 width="300.000000pt" height="233.000000pt" viewBox="0 0 300.000000 233.000000"
 preserveAspectRatio="xMidYMid meet">
<metadata>
Created by potrace 1.10, written by Peter Selinger 2001-2011
</metadata>
<g transform="translate(0.000000,233.000000) scale(0.100000,-0.100000)"
fill="#000000" stroke="none">
<path d="M2315 1391 c-50 -9 -116 -50 -145 -91 -12 -17 -30 -54 -40 -82 -28
-81 -4 -125 82 -149 33 -8 36 -12 27 -27 -27 -43 58 -122 131 -122 69 0 150
71 136 118 -10 30 -7 35 26 39 37 3 89 52 87 81 -1 36 -35 113 -67 151 -56 68
-144 98 -237 82z m150 -28 c42 -21 84 -62 105 -103 23 -44 36 -110 22 -110 -5
0 -12 -9 -15 -20 -6 -21 -53 -48 -65 -36 -12 13 -8 104 6 118 11 11 19 7 43
-20 l30 -33 -7 28 c-26 109 -117 183 -224 183 -38 0 -113 -31 -143 -58 -27
-24 -67 -107 -66 -134 1 -16 3 -18 6 -6 2 9 15 24 29 33 24 16 26 15 31 -4 6
-23 23 -29 23 -8 0 24 34 56 45 43 12 -13 14 -166 3 -166 -5 0 -8 -8 -9 -17 0
-14 -2 -15 -6 -3 -4 8 -12 21 -20 28 -7 7 -13 22 -13 33 0 10 -4 19 -10 19 -5
0 -10 -9 -10 -20 0 -30 -25 -24 -55 12 -23 27 -26 39 -22 74 16 142 191 232
322 167z m-3 -34 c38 -20 78 -63 78 -85 0 -20 -40 -17 -63 4 -19 17 -20 17 -3
-15 9 -18 16 -53 16 -79 0 -49 -18 -114 -32 -114 -12 0 -10 58 2 65 6 3 10 24
10 45 0 21 -4 42 -10 45 -6 4 -10 -12 -10 -42 0 -48 -13 -83 -26 -71 -3 4 -1
21 5 39 8 24 8 41 -1 65 -12 35 -4 59 12 34 8 -12 10 -10 10 8 0 19 -3 21 -18
13 -23 -12 -113 -6 -142 9 -16 8 -25 7 -42 -5 -28 -19 -58 -20 -58 -1 0 21 39
65 73 83 69 36 130 36 199 2z m-122 -120 c0 -11 3 -18 8 -16 4 3 7 -17 7 -43
0 -26 -3 -46 -7 -43 -5 2 -8 -3 -8 -11 0 -20 -7 -20 -26 -2 -17 18 -18 89 -2
116 16 26 28 25 28 -1z m66 -6 c19 -25 18 -92 -1 -99 -8 -4 -12 -10 -9 -15 3
-5 -2 -9 -10 -9 -13 0 -16 13 -16 70 0 72 10 87 36 53z m-16 -158 c11 10 20
13 20 8 0 -36 -72 -43 -79 -8 -3 20 -3 20 18 1 20 -18 22 -18 41 -1z m70 -17
c11 -3 8 -10 -12 -31 -53 -53 -189 -25 -159 32 l12 22 30 -25 c34 -29 67 -24
84 13 8 17 12 19 20 8 5 -8 17 -16 25 -19z m-195 -18 c41 -79 169 -79 210 0
17 33 25 38 25 15 0 -25 -66 -82 -103 -89 -62 -12 -157 43 -157 90 0 22 8 17
25 -16z"/>
<path d="M2256 1194 c-9 -23 -7 -67 4 -84 7 -11 10 2 10 43 0 59 -3 69 -14 41z"/>
<path d="M2520 1149 c0 -31 4 -48 10 -44 6 3 10 26 10 51 0 24 -4 44 -10 44
-5 0 -10 -23 -10 -51z"/>
<path d="M525 1315 c-5 -2 -21 -6 -35 -9 -31 -6 -60 -53 -60 -95 0 -34 37 -81
64 -81 29 0 11 -25 -18 -26 -36 -1 -50 -17 -42 -47 11 -46 123 -75 179 -46 30
15 56 50 57 74 1 17 4 16 28 -11 78 -90 176 -96 244 -15 24 28 27 40 27 102 0
63 -3 73 -30 104 -29 32 -69 53 -99 50 -8 -1 -27 -3 -43 -3 -15 -1 -43 -16
-63 -35 -27 -25 -36 -42 -40 -77 -9 -74 -10 -75 -56 -35 -24 20 -56 39 -71 42
-16 3 -24 10 -20 14 5 5 23 5 40 0 25 -7 35 -6 47 8 21 23 20 44 -1 63 -18 15
-88 30 -108 23z m86 -35 c28 -16 25 -44 -3 -35 -51 16 -94 17 -107 1 -25 -30
-9 -50 58 -71 91 -29 115 -72 66 -120 -19 -20 -34 -25 -75 -25 -60 0 -112 23
-104 45 7 18 12 18 44 0 34 -19 94 -19 111 1 20 24 -1 47 -62 66 -64 21 -93
51 -84 87 9 40 41 61 92 61 24 0 53 -5 64 -10z m279 -6 c47 -28 82 -108 43
-97 -10 2 -25 19 -33 36 -29 62 -111 61 -140 0 -15 -32 -50 -46 -50 -20 0 20
37 70 62 83 32 18 85 17 118 -2z m-14 -79 l26 -35 -26 -35 c-36 -47 -52 -46
-100 12 -17 20 -17 22 0 48 15 24 43 42 66 44 4 1 19 -15 34 -34z m-119 -82
c11 -23 29 -42 46 -47 41 -15 79 3 100 47 19 38 47 50 47 20 0 -25 -34 -74
-62 -89 -32 -18 -94 -17 -124 2 -27 18 -54 63 -54 89 0 28 28 15 47 -22z"/>
<path d="M1415 1312 c-56 -12 -114 -90 -115 -154 0 -76 97 -167 165 -153 17 3
47 6 68 5 31 0 40 4 44 20 3 11 9 17 14 14 5 -3 9 13 9 36 0 43 -21 95 -42
102 -9 3 -9 11 1 35 13 32 7 58 -21 80 -15 12 -92 22 -123 15z m115 -49 c27
-22 29 -28 16 -35 -11 -6 -23 -3 -38 12 -54 50 -138 1 -138 -82 0 -31 7 -46
30 -70 27 -27 36 -30 71 -25 34 4 40 3 37 -11 -2 -12 -16 -18 -49 -20 -38 -2
-52 2 -77 23 -93 78 -44 235 73 235 32 0 51 -7 75 -27z m-45 -45 c27 -12 34
-38 11 -38 -25 0 -41 -29 -28 -51 27 -43 -5 -55 -45 -17 -29 27 -30 71 -1 98
25 23 29 24 63 8z m77 -123 c3 -57 1 -65 -14 -65 -15 0 -18 9 -18 50 0 47 -2
50 -25 50 -16 0 -25 6 -25 15 0 11 11 15 39 15 l39 0 4 -65z"/>
<path d="M1022 1297 c-6 -7 -11 -28 -10 -47 0 -19 -3 -70 -7 -112 -9 -89 6
-128 50 -128 25 0 29 7 40 73 3 20 10 37 14 37 5 0 21 -18 36 -40 48 -69 103
-90 126 -48 14 27 13 232 -2 260 -21 39 -79 7 -79 -45 0 -46 -21 -42 -68 12
-45 52 -78 65 -100 38z m121 -109 l77 -100 0 101 c0 90 2 101 18 101 15 0 17
-13 17 -130 0 -111 -2 -130 -16 -130 -14 0 -193 213 -206 245 -3 10 1 15 13
14 12 0 49 -39 97 -101z m-73 -85 c0 -66 -2 -73 -20 -73 -19 0 -20 7 -20 98
l0 97 20 -25 c15 -19 20 -41 20 -97z"/>
<path d="M1629 1288 c-15 -27 -5 -256 11 -272 6 -6 44 -12 85 -14 58 -3 81 0
100 12 50 33 25 64 -53 67 -39 2 -51 6 -48 16 3 7 1 13 -4 13 -5 0 -9 12 -9
28 1 138 -8 172 -45 172 -16 0 -30 -8 -37 -22z m51 -98 c0 -80 -3 -100 -14
-100 -12 0 -15 21 -18 100 -3 90 -1 100 15 100 15 0 17 -11 17 -100z m150
-145 c0 -12 -17 -15 -93 -15 -77 0 -94 3 -94 15 0 12 17 15 94 15 76 0 93 -3
93 -15z"/>
<path d="M1827 1303 c-21 -20 -4 -73 44 -134 21 -27 29 -48 29 -79 0 -54 15
-80 45 -80 29 0 44 25 50 81 2 23 9 46 14 53 5 6 22 36 39 66 22 41 27 61 21
78 -14 36 -52 28 -94 -20 -24 -27 -39 -38 -42 -30 -18 48 -83 89 -106 65z m73
-68 c28 -50 32 -75 11 -75 -4 0 -13 10 -19 23 -6 12 -23 41 -37 65 -25 40 -25
42 -6 42 13 0 29 -17 51 -55z m149 33 c-7 -13 -30 -52 -52 -87 -32 -54 -38
-71 -35 -108 3 -36 0 -43 -14 -43 -15 0 -18 9 -18 49 0 39 9 64 46 130 33 57
52 81 65 81 17 0 18 -3 8 -22z"/>
</g>
</svg>
